<?xml version="1.0" encoding="UTF-8"?>
<svg version="1.1" xmlns="http://www.w3.org/2000/svg" width="512" height="512">
<path d="M0 0 C168.96 0 337.92 0 512 0 C512 168.96 512 337.92 512 512 C343.04 512 174.08 512 0 512 C0 343.04 0 174.08 0 0 Z " fill="#F6F6F6" transform="translate(0,0)"/>
<path d="M0 0 C6.23449703 5.07719519 8.97968851 11.11384245 10 19 C10.92733767 39.57530449 -0.47183507 62.1455444 -14 77 C-14.71929687 77.825 -15.43859375 78.65 -16.1796875 79.5 C-18.41543308 82.03745519 -20.69609339 84.52439844 -23 87 C-23.65097656 87.71671875 -24.30195313 88.4334375 -24.97265625 89.171875 C-36.58382942 101.43184204 -51.19202967 110.68055597 -65.26416016 119.83691406 C-66.67588846 120.78283159 -68.03978569 121.79983514 -69.38671875 122.8359375 C-71 124 -71 124 -73 124 C-75.62297943 131.81574297 -75.62297943 131.81574297 -76 140 C-69.88167268 140.38191096 -65.02973597 139.02464351 -59.24609375 137.11328125 C-58.30935318 136.81439499 -57.37261261 136.51550873 -56.40748596 136.20756531 C-53.41432851 135.2520759 -50.42554482 134.28385033 -47.4375 133.3125 C-28.83826322 127.27049301 -10.13771607 121.72167753 9.3125 119.1875 C10.13943359 119.06697266 10.96636719 118.94644531 11.81835938 118.82226562 C17.25648681 118.07350693 22.51154052 117.89540549 28 118 C28.14695312 116.68902344 28.14695312 116.68902344 28.296875 115.3515625 C29.0579043 111.7239895 30.24298234 109.47278813 32.25 106.375 C32.83265625 105.45460938 33.4153125 104.53421875 34.015625 103.5859375 C36.84988152 99.89247723 39.56512245 97.47829252 44 96 C48.2677344 95.52056759 51.78991204 95.24369502 55.5 97.5625 C57.61814018 101.00447779 58.20400904 102.91981924 58 107 C52.84007136 115.49580608 44.34367826 120.94090955 35.1015625 123.9453125 C32.91929669 124.84412228 32.91929669 124.84412228 31.734375 126.6953125 C29.66480334 133.19024483 29.81876313 141.52797241 32.8125 147.6875 C35.98835224 152.52755017 35.98835224 152.52755017 41 155 C55.46675204 156.18095935 68.98652342 146.98485497 79.6328125 138.06640625 C80.41398437 137.38449219 81.19515625 136.70257813 82 136 C82.84304688 135.26652344 83.68609375 134.53304687 84.5546875 133.77734375 C89.35881998 129.52079476 93.92765436 125.12549752 98.30859375 120.43359375 C100 119 100 119 103 119 C103.47211338 121.59905714 103.45921129 123.3362062 101.92919922 125.54785156 C100.32741644 127.31574119 98.66219473 128.97662928 96.9375 130.625 C96.3069873 131.23819092 95.67647461 131.85138184 95.02685547 132.4831543 C81.31036132 145.53365114 62.42393478 160.28559648 42.875 161.5 C37.58816981 161.31712223 33.92954715 159.48486399 30 156 C26.44500524 151.44231441 24.87485292 147.96124498 24.8671875 142.21875 C24.86589844 141.29449219 24.86460937 140.37023437 24.86328125 139.41796875 C24.86714844 138.45503906 24.87101562 137.49210938 24.875 136.5 C24.87113281 135.53707031 24.86726563 134.57414063 24.86328125 133.58203125 C24.86521484 132.19564453 24.86521484 132.19564453 24.8671875 130.78125 C24.86831543 129.93626953 24.86944336 129.09128906 24.87060547 128.22070312 C25 126 25 126 26 123 C1.21544161 126.82485676 -22.79384582 132.07455372 -46.875 139.125 C-47.59965454 139.33691986 -48.32430908 139.54883972 -49.07092285 139.7671814 C-63.61779202 142.99780189 -63.61779202 142.99780189 -76 150 C-76.14082463 152.50599744 -76.14082463 152.50599744 -75 155 C-72.36558574 156.82413679 -72.36558574 156.82413679 -69.0625 158.25 C-56.26725414 164.60277361 -46.09962642 175.41553241 -40.7421875 188.76171875 C-36.90503162 200.33377306 -36.59197507 212.52280918 -41 224 C-43.45391492 227.90883169 -45.57645854 230.52548618 -50 232 C-56.4119409 232.54338482 -60.61684329 231.56561778 -66 228 C-83.18743491 212.76568269 -87.81615768 190.27571384 -90.56933594 168.55737305 C-90.7140332 167.4775415 -90.85873047 166.39770996 -91.0078125 165.28515625 C-91.12785645 164.31457275 -91.24790039 163.34398926 -91.37158203 162.34399414 C-91.81907838 159.64392734 -91.81907838 159.64392734 -95 158 C-97.73872955 157.54227937 -97.73872955 157.54227937 -100.6875 157.375 C-101.68136719 157.30023438 -102.67523438 157.22546875 -103.69921875 157.1484375 C-104.83810547 157.07496094 -104.83810547 157.07496094 -106 157 C-106.33 155.35 -106.66 153.7 -107 152 C-103.04923227 150.21578232 -99.24073957 149.42962944 -94.98828125 148.7578125 C-92.87202694 148.1792604 -92.87202694 148.1792604 -91.9152832 146.27783203 C-90.88347866 143.71001758 -90.59152802 141.55305853 -90.3671875 138.796875 C-90.28339844 137.8171875 -90.19960938 136.8375 -90.11328125 135.828125 C-90.03464844 134.81234375 -89.95601562 133.7965625 -89.875 132.75 C-89.74544922 131.203125 -89.74544922 131.203125 -89.61328125 129.625 C-89.40151817 127.08384301 -89.19736846 124.54230879 -89 122 C-98.66976104 122.97194295 -108.33566489 123.97567583 -118 125 C-119.24112549 125.12761719 -119.24112549 125.12761719 -120.50732422 125.2578125 C-140.00250009 127.07587197 -140.00250009 127.07587197 -158 134 C-158.92584813 136.72043039 -159.62266746 139.27367957 -160.25 142.0625 C-164.30788627 158.03302081 -171.53419387 171.31982509 -182 184 C-182.72960937 184.886875 -183.45921875 185.77375 -184.2109375 186.6875 C-191.33722505 194.52906549 -202.5657971 200.80618819 -213.125 202.30078125 C-219.18545846 202.33865912 -222.93668419 200.6794431 -227.6875 196.8125 C-231.76324208 191.85551639 -233.31455194 187.31976604 -233.125 180.875 C-231.58957063 169.11426441 -224.92670877 159.44358787 -216 152 C-214.67355469 150.87851562 -214.67355469 150.87851562 -213.3203125 149.734375 C-203.98079172 142.2931308 -193.68506839 137.12575402 -182.56640625 132.8984375 C-181.65246094 132.54918213 -180.73851562 132.19992676 -179.796875 131.84008789 C-178.00103307 131.16520408 -176.19763455 130.51003382 -174.38671875 129.87670898 C-172.13610827 129.0409391 -170.05937885 128.23409134 -168 127 C-166.53920767 123.67063233 -166.98090844 122.10691271 -167.625 118.5 C-169.22303584 114.4322724 -170.49300779 112.61158994 -174 110 C-176.96741589 108.93106219 -179.87800255 108.40248748 -183 108 C-184.60875 107.7834375 -184.60875 107.7834375 -186.25 107.5625 C-206.11063853 109.87957449 -222.5844559 125.86989572 -234.578125 140.8046875 C-268.31174819 184.77790485 -283.59811861 241.91474408 -298.91796875 294.30078125 C-299.24808456 295.42921951 -299.57820038 296.55765778 -299.9183197 297.72029114 C-301.52886005 303.23579468 -303.12834937 308.75420943 -304.71166992 314.27758789 C-307.47212457 323.85455933 -310.33165051 333.37299212 -313.6953125 342.7578125 C-313.96818085 343.53784637 -314.24104919 344.31788025 -314.52218628 345.12155151 C-316.03925986 349.2220995 -317.41385141 352.26714145 -321 355 C-323.5625 355.0625 -323.5625 355.0625 -326 354 C-342.49087056 330.48826376 -326.69616475 277.63716348 -322.13256836 251.49145508 C-321.10577755 245.65780671 -320.05794755 239.82807158 -319 234 C-318.84768921 233.16019592 -318.69537842 232.32039185 -318.53845215 231.45513916 C-314.68446602 210.26247519 -310.4733631 189.13901604 -306.20654297 168.02612305 C-304.56796081 159.90982937 -302.93620092 151.7955111 -301.45703125 143.6484375 C-301.12662842 141.84669067 -301.12662842 141.84669067 -300.78955078 140.00854492 C-300.40611605 137.89343434 -300.03233278 135.77653486 -299.67138672 133.6574707 C-298.60800071 127.804722 -297.05820486 123.13236308 -294 118 C-291.375 116.875 -291.375 116.875 -289 117 C-285.39421016 120.60578984 -285.92164384 125.43292276 -285.84765625 130.296875 C-285.87846512 137.60187826 -286.91074215 144.67610965 -288.0625 151.875 C-288.28595409 153.30825803 -288.509341 154.74152654 -288.73266602 156.17480469 C-292.57993041 180.57478507 -297.25612002 204.83258339 -302.33203125 229.00390625 C-310.11757295 266.15537212 -317.76392353 303.13830833 -321 341 C-318.8449686 340.1878487 -318.8449686 340.1878487 -318.16949463 338.12371826 C-317.89732117 337.30010803 -317.62514771 336.4764978 -317.34472656 335.62792969 C-317.03283386 334.69184875 -316.72094116 333.75576782 -316.39959717 332.7913208 C-316.06663635 331.76190369 -315.73367554 330.73248657 -315.390625 329.671875 C-315.03881165 328.59943542 -314.68699829 327.52699585 -314.32452393 326.42205811 C-310.60479984 314.97473675 -307.20171945 303.43525972 -303.81719971 291.88537598 C-258.23242663 136.60254762 -258.23242663 136.60254762 -206.73046875 107.12890625 C-196.18333589 101.70578121 -186.15559344 98.84041793 -174.234375 101.65234375 C-167.78871686 104.2064906 -163.73008931 108.40507922 -160.74609375 114.60546875 C-158 121.23628049 -158 121.23628049 -158 124 C-152.17763396 123.39078649 -146.42347202 122.63538553 -140.65234375 121.66015625 C-139.07187722 121.39929651 -137.49130671 121.13906613 -135.91064453 120.87939453 C-135.09742737 120.74551331 -134.28421021 120.61163208 -133.4463501 120.47369385 C-117.98120445 117.93899767 -102.65926433 115.90642448 -87 115 C-86.98582031 114.25621094 -86.97164062 113.51242188 -86.95703125 112.74609375 C-85.48548634 79.05964676 -72.37432017 38.8092703 -47.51171875 15.203125 C-35.77642591 4.90964886 -15.68962378 -9.12402483 0 0 Z " fill="#1B1B15" transform="translate(377,83)"/>
<path d="M0 0 C4.50272224 3.5143198 6.19693915 7.24337278 6.9453125 12.88671875 C7.73349902 34.24657334 -3.56787183 54.44395299 -17.5625 69.8125 C-19.00802916 71.36001969 -20.46475746 72.89564015 -21.9296875 74.42480469 C-22.93502002 75.47506463 -23.93504421 76.53043162 -24.9296875 77.59082031 C-37.69406296 91.17363695 -52.63873854 102.17015263 -68.4375 112 C-68.7675 112 -69.0975 112 -69.4375 112 C-69.72426997 104.12589535 -68.98181375 96.89127584 -67.375 89.1875 C-67.15239502 88.10509033 -66.92979004 87.02268066 -66.70043945 85.9074707 C-62.86019421 67.96843217 -56.65743539 50.83575994 -49.4375 34 C-48.99664062 32.97132812 -48.55578125 31.94265625 -48.1015625 30.8828125 C-40.0501422 13.53713521 -20.45498713 -5.95054171 0 0 Z " fill="#F6F6F5" transform="translate(373.4375,88)"/>
<path d="M0 0 C1.67542976 0.28604898 3.34385343 0.61781233 5 1 C8.99099461 11.97523517 6.73596023 23.6339931 4.9375 34.875 C4.71404591 36.30825803 4.490659 37.74152654 4.26733398 39.17480469 C0.42006959 63.57478507 -4.25612002 87.83258339 -9.33203125 112.00390625 C-17.11757295 149.15537212 -24.76392353 186.13830833 -28 224 C-25.48916886 222.74458443 -25.12874554 221.49936512 -24 219 C-22.68 219.33 -21.36 219.66 -20 220 C-21.04436246 225.93637607 -22.20518551 232.14902355 -26 237 C-29.0625 238.1875 -29.0625 238.1875 -32 238 C-35.93206465 235.23587535 -36.22893474 231.01441431 -37.06469727 226.5456543 C-42.98537044 191.34132348 -32.27223421 151.55278099 -26 117 C-25.84768921 116.16019592 -25.69537842 115.32039185 -25.53845215 114.45513916 C-21.68446602 93.26247519 -17.4733631 72.13901604 -13.20654297 51.02612305 C-11.56796081 42.90982937 -9.93620092 34.7955111 -8.45703125 26.6484375 C-8.2367627 25.44727295 -8.01649414 24.2461084 -7.78955078 23.00854492 C-7.40611605 20.89343434 -7.03233278 18.77653486 -6.67138672 16.6574707 C-5.6290831 10.92075695 -4.29403044 4.29403044 0 0 Z " fill="#1A1A13" transform="translate(84,200)"/>
<path d="M0 0 C-2.42750191 16.37658003 -10.4576103 30.49425027 -21 43 C-21.64582031 43.84691406 -22.29164063 44.69382812 -22.95703125 45.56640625 C-28.77484043 52.49660725 -37.25869511 56.95901944 -46 59 C-50.24930032 59 -52.2291084 58.47966588 -55.8125 56.25 C-58.79812488 53.17907155 -59.86390115 51.14647334 -60.13671875 46.84375 C-59.82095678 36.34050983 -53.05143908 28.21588832 -45.6875 21.25 C-35.6080871 12.81142176 -13.71749799 -4.03455823 0 0 Z " fill="#F5F5F4" transform="translate(210,220)"/>
<path d="M0 0 C10.40639949 1.03046254 17.21129254 7.3945873 23.88671875 15.1015625 C32.16556395 26.45628179 35.31521325 38.07008913 34 52 C32.70119983 57.02159866 31.34797632 60.10134912 27 63 C21.71396271 62.8825325 18.60324258 60.64727891 15 57 C13.45702152 54.73436071 12.17547349 52.66382415 10.9375 50.25 C10.60024902 49.60530762 10.26299805 48.96061523 9.91552734 48.29638672 C6.18580036 40.84941869 4.0454765 33.04112421 2 25 C1.75378906 24.17113281 1.50757813 23.34226562 1.25390625 22.48828125 C-0.75910248 15.19980136 -0.16547492 7.49233672 0 0 Z " fill="#F5F5F4" transform="translate(300,245)"/>
<path d="M0 0 C3.2769387 2.04808669 3.86489626 3.63024241 5.1875 7.25 C4.90691671 12.86166584 2.01209098 15.31098002 -2 19 C-6.88555175 23.37287039 -11.66339801 25.91844208 -17.8984375 27.9453125 C-20.08070331 28.84412228 -20.08070331 28.84412228 -21.265625 30.6953125 C-23.33519666 37.19024483 -23.18123687 45.52797241 -20.1875 51.6875 C-17.01164776 56.52755017 -17.01164776 56.52755017 -12 59 C2.46675204 60.18095935 15.98652342 50.98485497 26.6328125 42.06640625 C27.41398437 41.38449219 28.19515625 40.70257813 29 40 C29.84304688 39.26652344 30.68609375 38.53304687 31.5546875 37.77734375 C36.35881998 33.52079476 40.92765436 29.12549752 45.30859375 24.43359375 C47 23 47 23 50 23 C50.47211338 25.59905714 50.45921129 27.3362062 48.92919922 29.54785156 C47.32741644 31.31574119 45.66219473 32.97662928 43.9375 34.625 C43.3069873 35.23819092 42.67647461 35.85138184 42.02685547 36.4831543 C28.31036132 49.53365114 9.42393478 64.28559648 -10.125 65.5 C-15.41183019 65.31712223 -19.07045285 63.48486399 -23 60 C-26.55499476 55.44231441 -28.12514708 51.96124498 -28.1328125 46.21875 C-28.13410156 45.29449219 -28.13539063 44.37023437 -28.13671875 43.41796875 C-28.13091797 41.97357422 -28.13091797 41.97357422 -28.125 40.5 C-28.12886719 39.53707031 -28.13273437 38.57414062 -28.13671875 37.58203125 C-28.13542969 36.65777344 -28.13414062 35.73351562 -28.1328125 34.78125 C-28.13168457 33.93626953 -28.13055664 33.09128906 -28.12939453 32.22070312 C-28 30 -28 30 -27 27 C-27.99 27 -28.98 27 -30 27 C-29.67 25.68 -29.34 24.36 -29 23 C-27.68 22.67 -26.36 22.34 -25 22 C-24.90203125 21.12601563 -24.8040625 20.25203125 -24.703125 19.3515625 C-23.9420957 15.7239895 -22.75701766 13.47278813 -20.75 10.375 C-20.16734375 9.45460937 -19.5846875 8.53421875 -18.984375 7.5859375 C-13.83255747 0.87234851 -8.21289778 -1.03960731 0 0 Z " fill="#1A1A14" transform="translate(430,179)"/>
<path d="M0 0 C2.63016161 2.1727422 4.47336894 3.94673788 6 7 C6.37464112 12.6196168 6.13609371 16.121632 3 21 C-0.54129184 23.36086122 -1.82750218 23.57269578 -6 23 C-8.94876849 21.2867109 -11.40362233 19.27795214 -12.875 16.125 C-12.91625 15.42375 -12.9575 14.7225 -13 14 C-13.103125 12.88625 -13.20625 11.7725 -13.3125 10.625 C-12.94168719 6.32357145 -11.68994874 4.32287785 -9 1 C-5.86128812 -0.56935594 -3.46144178 -0.35201103 0 0 Z " fill="#F0F0F0" transform="translate(300,334)"/>
<path d="M0 0 C3.13108784 2.58655082 5.77593729 4.80677082 6.203125 8.98828125 C6.30089852 13.8362185 6.20167013 17.08684762 3 21 C-0.51253146 23.34168764 -1.86469356 23.49623677 -6 23 C-8.88595644 21.22907219 -10.57622844 19.67418203 -12.375 16.8125 C-13.29081716 12.69132277 -13.12658593 9.07190863 -12 5 C-8.61725876 0.12487292 -5.85513812 -1.04556038 0 0 Z " fill="#F0F0F0" transform="translate(253,334)"/>
<path d="M0 0 C4.23259682 0.67184077 5.44879559 1.24036201 7.9375 4.625 C9.79019921 8.33039842 9.40194489 12.58123313 8.9375 16.625 C7.62632399 19.73826625 6.03140848 22.07804576 2.9375 23.625 C0.125 24 0.125 24 -3.0625 23.625 C-6.27572357 20.91161121 -8.79732858 18.73121874 -9.3359375 14.453125 C-9.50557218 10.14701384 -9.63715703 6.61143168 -7.0625 3 C-4.14376143 0.68933196 -3.47715886 0.2079796 0 0 Z " fill="#F3F3F3" transform="translate(328.0625,378.375)"/>
<path d="M0 0 C3.40447527 2.69520959 4.6997943 4.19010601 5.40625 8.44921875 C5.58172882 13.34069077 5.34372442 17.17860066 2 21 C-0.65499724 23.08606926 -2.06750504 22.99879455 -5.5 22.9375 C-9 22 -9 22 -11.4375 20.125 C-13.7703629 15.4592742 -13.65347204 11.12014565 -13 6 C-10.34167232 -0.04165383 -6.42533215 -1.24083852 0 0 Z " fill="#F1F1F1" transform="translate(156,379)"/>
<path d="M0 0 C11.10866043 5.11194993 19.43301459 16.24850636 24.03515625 27.28125 C27.43459664 36.86023993 28.15507795 47.0327645 26 57 C23.525 57.495 23.525 57.495 21 58 C21.03927612 57.09459473 21.03927612 57.09459473 21.0793457 56.17089844 C21.74205792 38.56791965 19.79974786 26.77360274 8 13 C5.98900326 11.03568711 3.94390918 9.2080399 1.76171875 7.4375 C0.05916064 6.04827299 -1.47335071 4.5783205 -3 3 C-2.01 2.01 -1.02 1.02 0 0 Z " fill="#1E1E18" transform="translate(312,244)"/>
<path d="M0 0 C3.46845666 2.16778541 3.89757547 3.58298584 4.875 7.5625 C5 11 5 11 3 14 C2.01 13.67 1.02 13.34 0 13 C0 12.34 0 11.68 0 11 C-0.66 10.67 -1.32 10.34 -2 10 C-2 9.01 -2 8.02 -2 7 C-2.42410156 7.53109375 -2.84820312 8.0621875 -3.28515625 8.609375 C-7.15895431 13.27496036 -10.49818226 16.4109093 -16 19 C-16.66 19 -17.32 19 -18 19 C-18.66 17.68 -19.32 16.36 -20 15 C-21.32 15.99 -22.64 16.98 -24 18 C-22.37414215 10.95461597 -17.94542561 5.11302272 -12.125 0.9375 C-7.98299342 -0.30510197 -4.28305264 -0.71655634 0 0 Z " fill="#1A1A14" transform="translate(430,179)"/>
<path d="M0 0 C0.47211338 2.59905714 0.45921129 4.3362062 -1.07080078 6.54785156 C-2.67258356 8.31574119 -4.33780527 9.97662928 -6.0625 11.625 C-6.6930127 12.23819092 -7.32352539 12.85138184 -7.97314453 13.4831543 C-18.81966306 23.80302571 -34.06700393 36.70418938 -49 40 C-49 39.01 -49 38.02 -49 37 C-48.01 37 -47.02 37 -46 37 C-47.32 36.34 -48.64 35.68 -50 35 C-48.98421875 34.52691406 -47.9684375 34.05382812 -46.921875 33.56640625 C-30.36968229 25.68816031 -16.78740581 14.6010745 -4.40234375 1.14453125 C-3 0 -3 0 0 0 Z " fill="#1E1F19" transform="translate(480,202)"/>
<path d="M0 0 C11 0 11 0 14.1875 2.1875 C16 5 16 5 16.5625 7.5625 C15.83858751 10.69945412 14.42429075 11.95450468 12 14 C12.309375 14.763125 12.61875 15.52625 12.9375 16.3125 C13.67893593 18.18789677 14.36228217 20.08684652 15 22 C12.00675737 20.9024777 11.15389099 20.32317108 9.75 17.375 C9.5025 16.59125 9.255 15.8075 9 15 C6.69 15 4.38 15 2 15 C2 17.31 2 19.62 2 22 C1.34 22 0.68 22 0 22 C0 14.74 0 7.48 0 0 Z " fill="#010101" transform="translate(171,379)"/>
<path d="M0 0 C11 0 11 0 14.25 2.125 C16 5 16 5 16 8.125 C15.02413204 10.93062038 14.30542881 12.19575137 12 14 C12.309375 14.763125 12.61875 15.52625 12.9375 16.3125 C13.67893593 18.18789677 14.36228217 20.08684652 15 22 C14.01 22 13.02 22 12 22 C9 17.77777778 9 17.77777778 9 15 C6.69 15 4.38 15 2 15 C2 17.31 2 19.62 2 22 C1.34 22 0.68 22 0 22 C0 14.74 0 7.48 0 0 Z " fill="#090909" transform="translate(273,379)"/>
<path d="M0 0 C11 0 11 0 15 3 C16.10373378 6.97344161 16.41543583 9.08999772 14.6875 12.875 C13 15 13 15 11 16 C9.45976004 16.06950541 7.91665012 16.08452357 6.375 16.0625 C5.14910156 16.04896484 5.14910156 16.04896484 3.8984375 16.03515625 C3.27195312 16.02355469 2.64546875 16.01195312 2 16 C2 18.31 2 20.62 2 23 C1.34 23 0.68 23 0 23 C0 15.41 0 7.82 0 0 Z " fill="#050505" transform="translate(122,334)"/>
<path d="M0 0 C0.99 0.66 1.98 1.32 3 2 C3 2.66 3 3.32 3 4 C2.38511719 3.89300781 1.77023437 3.78601563 1.13671875 3.67578125 C-0.07564453 3.49595703 -0.07564453 3.49595703 -1.3125 3.3125 C-2.11300781 3.18488281 -2.91351563 3.05726563 -3.73828125 2.92578125 C-6.03301779 2.80765277 -6.03301779 2.80765277 -7.76953125 4.13671875 C-9.44493609 6.67376036 -9.39936587 8.47863169 -9.375 11.5 C-9.38273437 12.4590625 -9.39046875 13.418125 -9.3984375 14.40625 C-9.20246264 17.02383037 -9.20246264 17.02383037 -7.64453125 18.83203125 C-5.38770759 20.4348585 -3.69985425 20.2189071 -1 20 C-0.01 16.535 -0.01 16.535 1 13 C-0.65 13 -2.3 13 -4 13 C-4 12.34 -4 11.68 -4 11 C-1.36 11 1.28 11 4 11 C4 14.96 4 18.92 4 23 C3.34 23 2.68 23 2 23 C2 22.34 2 21.68 2 21 C1.01 21.66 0.02 22.32 -1 23 C-3.875 23.4375 -3.875 23.4375 -7 23 C-12.73704291 18.15538599 -12.73704291 18.15538599 -13.23828125 14.046875 C-13.41774475 8.49295197 -12.73664814 5.39605663 -9 1 C-5.98131566 -0.50934217 -3.32702771 -0.17510672 0 0 Z " fill="#2C2C2C" transform="translate(327,334)"/>
<path d="M0 0 C4.5 2.25 4.5 2.25 6.359375 5.4765625 C6.71483398 6.08064941 7.07029297 6.68473633 7.43652344 7.30712891 C7.8699707 8.07202637 8.30341797 8.83692383 8.75 9.625 C10.1525 12.05875 11.555 14.4925 13 17 C13.33 11.39 13.66 5.78 14 0 C14.66 0 15.32 0 16 0 C16 7.59 16 15.18 16 23 C11.5 20.75 11.5 20.75 9.640625 17.5234375 C9.24746094 16.853125 8.85429687 16.1828125 8.44921875 15.4921875 C7.85560547 14.44417969 7.85560547 14.44417969 7.25 13.375 C6.83878906 12.66859375 6.42757813 11.9621875 6.00390625 11.234375 C4.99319737 9.49501553 3.99532895 7.74820597 3 6 C2.67 11.28 2.34 16.56 2 22 C1.34 22 0.68 22 0 22 C0 14.74 0 7.48 0 0 Z " fill="#0C0C0C" transform="translate(347,379)"/>
<path d="M0 0 C0.99 0 1.98 0 3 0 C3 2.31 3 4.62 3 7 C6.63 7 10.26 7 14 7 C14 4.69 14 2.38 14 0 C14.66 0 15.32 0 16 0 C16 7.59 16 15.18 16 23 C15.34 23 14.68 23 14 23 C14 18.38 14 13.76 14 9 C10.37 9 6.74 9 3 9 C3 13.62 3 18.24 3 23 C2.01 23 1.02 23 0 23 C0 15.41 0 7.82 0 0 Z " fill="#242424" transform="translate(215,334)"/>
<path d="M0 0 C2.63016161 2.1727422 4.47336894 3.94673788 6 7 C6.37464112 12.6196168 6.13609371 16.121632 3 21 C-0.54129184 23.36086122 -1.82750218 23.57269578 -6 23 C-8.94876849 21.2867109 -11.40362233 19.27795214 -12.875 16.125 C-12.91625 15.42375 -12.9575 14.7225 -13 14 C-13.103125 12.88625 -13.20625 11.7725 -13.3125 10.625 C-12.94168719 6.32357145 -11.68994874 4.32287785 -9 1 C-5.86128812 -0.56935594 -3.46144178 -0.35201103 0 0 Z M-8.4375 3.25 C-10.93991467 7.65424982 -10.7417378 12.06257362 -10 17 C-8.5368109 19.8017483 -8.5368109 19.8017483 -6 21 C-2.78191828 21.64361634 -1.51388795 21.3283173 1.25 19.5625 C3.7757228 15.86412018 4.18179604 12.4342425 4 8 C3.2236068 4.9254644 3.2236068 4.9254644 1 3 C-2.79071204 1.82832537 -4.86125944 1.41603048 -8.4375 3.25 Z " fill="#151515" transform="translate(300,334)"/>
<path d="M0 0 C3.13108784 2.58655082 5.77593729 4.80677082 6.203125 8.98828125 C6.30089852 13.8362185 6.20167013 17.08684762 3 21 C-0.51253146 23.34168764 -1.86469356 23.49623677 -6 23 C-8.88595644 21.22907219 -10.57622844 19.67418203 -12.375 16.8125 C-13.29081716 12.69132277 -13.12658593 9.07190863 -12 5 C-8.61725876 0.12487292 -5.85513812 -1.04556038 0 0 Z M-8.4375 3.3125 C-10.8470538 7.45693254 -10.7310589 11.32725236 -10 16 C-8.68944108 19.28904021 -8.68944108 19.28904021 -6 21 C-2.39418221 21.41349769 -2.39418221 21.41349769 1 20 C3.82149629 16.0863116 4.60850052 12.76658741 4 8 C3.09762034 5.10700447 3.09762034 5.10700447 1 3 C-2.81872186 1.81966779 -4.86823287 1.39058693 -8.4375 3.3125 Z " fill="#141414" transform="translate(253,334)"/>
<path d="M0 0 C4.29 0 8.58 0 13 0 C13 0.66 13 1.32 13 2 C9.37 2 5.74 2 2 2 C2 3.65 2 5.3 2 7 C4.97 7 7.94 7 11 7 C11 7.66 11 8.32 11 9 C8.36 9 5.72 9 3 9 C3 12.63 3 16.26 3 20 C6.3 20 9.6 20 13 20 C13 20.99 13 21.98 13 23 C8.71 23 4.42 23 0 23 C0 15.41 0 7.82 0 0 Z " fill="#222222" transform="translate(373,379)"/>
<path d="M0 0 C0.66 0.33 1.32 0.66 2 1 C-0.64 3.64 -3.28 6.28 -6 9 C-4.68 10.32 -3.36 11.64 -2 13 C-3.39113995 14.27596932 -4.78814413 15.54554648 -6.1875 16.8125 C-6.96480469 17.52019531 -7.74210937 18.22789062 -8.54296875 18.95703125 C-10.91984915 20.93335629 -13.31078866 22.48582594 -16 24 C-16 23.01 -16 22.02 -16 21 C-17.32 21 -18.64 21 -20 21 C-18.42406669 16.90641714 -15.46277202 14.44859603 -12.25 11.625 C-11.16575523 10.65335985 -10.08241258 9.68071205 -9 8.70703125 C-8.48179687 8.24248535 -7.96359375 7.77793945 -7.4296875 7.29931641 C-4.85521694 4.95960802 -2.42520316 2.49256991 0 0 Z " fill="#21211C" transform="translate(351,162)"/>
<path d="M0 0 C4.23259682 0.67184077 5.44879559 1.24036201 7.9375 4.625 C9.79019921 8.33039842 9.40194489 12.58123313 8.9375 16.625 C7.62632399 19.73826625 6.03140848 22.07804576 2.9375 23.625 C0.125 24 0.125 24 -3.0625 23.625 C-6.27572357 20.91161121 -8.79732858 18.73121874 -9.3359375 14.453125 C-9.50557218 10.14701384 -9.63715703 6.61143168 -7.0625 3 C-4.14376143 0.68933196 -3.47715886 0.2079796 0 0 Z M-5.4375 4.625 C-7.52514825 8.47911985 -7.77334553 11.3339203 -7.0625 15.625 C-6.05207782 18.59009533 -6.05207782 18.59009533 -4.0625 20.625 C-1.71377469 21.79477494 -1.71377469 21.79477494 0.9375 21.625 C3.72258316 20.48750805 3.72258316 20.48750805 5.9375 18.625 C7.17790113 14.90379661 7.4714994 11.49085484 6.9375 7.625 C5.50098718 4.53625677 5.50098718 4.53625677 2.9375 2.625 C-0.97551786 1.80978795 -2.36710472 2.03940397 -5.4375 4.625 Z " fill="#181818" transform="translate(328.0625,378.375)"/>
<path d="M0 0 C3.40447527 2.69520959 4.6997943 4.19010601 5.40625 8.44921875 C5.58172882 13.34069077 5.34372442 17.17860066 2 21 C-0.65499724 23.08606926 -2.06750504 22.99879455 -5.5 22.9375 C-9 22 -9 22 -11.4375 20.125 C-13.7703629 15.4592742 -13.65347204 11.12014565 -13 6 C-10.34167232 -0.04165383 -6.42533215 -1.24083852 0 0 Z M-9.375 3.9375 C-11.56249478 8.06008632 -11.9492762 11.42696511 -11 16 C-9.08088544 19.2539921 -9.08088544 19.2539921 -6 21 C-2.84627591 21.33550847 -2.84627591 21.33550847 0 20 C3.05529131 16.63917956 3.53901249 13.33037362 3.34765625 8.9375 C2.76413219 5.68550077 1.49231528 4.09879182 -1 2 C-4.87783399 1.19211792 -6.29489559 1.42478324 -9.375 3.9375 Z " fill="#181818" transform="translate(156,379)"/>
<path d="M0 0 C7.35678392 -0.36180905 7.35678392 -0.36180905 10 1.125 C11.47901666 3.89815624 11.38601984 5.91184125 11 9 C10 10.875 10 10.875 8 12 C5.28121737 12.24131207 2.7407889 12.1347929 0 12 C0 8.04 0 4.08 0 0 Z " fill="#F0F0F0" transform="translate(124,336)"/>
<path d="M0 0 C4.29 0 8.58 0 13 0 C13 0.66 13 1.32 13 2 C9.37 2 5.74 2 2 2 C2 3.65 2 5.3 2 7 C4.97 7 7.94 7 11 7 C11 7.66 11 8.32 11 9 C8.03 9 5.06 9 2 9 C2 12.63 2 16.26 2 20 C5.63 20 9.26 20 13 20 C13 20.99 13 21.98 13 23 C8.71 23 4.42 23 0 23 C0 15.41 0 7.82 0 0 Z " fill="#1C1C1C" transform="translate(206,379)"/>
<path d="M0 0 C3.96 0 7.92 0 12 0 C12 0.66 12 1.32 12 2 C8.7 2 5.4 2 2 2 C2 3.65 2 5.3 2 7 C4.97 7 7.94 7 11 7 C11 7.66 11 8.32 11 9 C8.03 9 5.06 9 2 9 C2 12.63 2 16.26 2 20 C5.63 20 9.26 20 13 20 C13 20.99 13 21.98 13 23 C8.71 23 4.42 23 0 23 C0 15.41 0 7.82 0 0 Z " fill="#171717" transform="translate(251,379)"/>
<path d="M0 0 C6.8359375 -0.1953125 6.8359375 -0.1953125 9 0 C11 2 11 2 11.3125 4.9375 C11 8 11 8 10 9.875 C6.74686316 11.70488947 3.68609891 11.18128355 0 11 C0 7.37 0 3.74 0 0 Z " fill="#F3F3F3" transform="translate(275,381)"/>
<path d="M0 0 C6.8359375 -0.1953125 6.8359375 -0.1953125 9 0 C11 2 11 2 11.3125 4.9375 C11 8 11 8 10 9.875 C6.74686316 11.70488947 3.68609891 11.18128355 0 11 C0 7.37 0 3.74 0 0 Z " fill="#F3F3F3" transform="translate(173,381)"/>
<path d="M0 0 C3.5 0.375 3.5 0.375 6.5 2.375 C6.5 3.035 6.5 3.695 6.5 4.375 C3.53 4.045 0.56 3.715 -2.5 3.375 C-2.83 5.025 -3.16 6.675 -3.5 8.375 C-2.87351563 8.56835938 -2.24703125 8.76171875 -1.6015625 8.9609375 C-0.78429687 9.22132813 0.03296875 9.48171875 0.875 9.75 C1.68710938 10.00523437 2.49921875 10.26046875 3.3359375 10.5234375 C5.5 11.375 5.5 11.375 7.5 13.375 C7.875 16.8125 7.875 16.8125 7.5 20.375 C5.30879809 22.9875869 3.93233248 23.31980862 0.5625 23.75 C-2.8657918 23.33020917 -4.76859492 22.46372153 -7.5 20.375 C-7.5 19.715 -7.5 19.055 -7.5 18.375 C-3.625 19.25 -3.625 19.25 -2.5 20.375 C-0.16702567 20.41592937 2.16705225 20.41741723 4.5 20.375 C4.5 18.395 4.5 16.415 4.5 14.375 C3.78972656 14.07207031 3.07945312 13.76914062 2.34765625 13.45703125 C1.42855469 13.03808594 0.50945312 12.61914062 -0.4375 12.1875 C-1.35402344 11.78144531 -2.27054688 11.37539063 -3.21484375 10.95703125 C-5.5 9.375 -5.5 9.375 -6.37890625 6.84375 C-6.5 4.375 -6.5 4.375 -5.5 2.0625 C-3.5 0.375 -3.5 0.375 0 0 Z " fill="#171717" transform="translate(152.5,333.625)"/>
<path d="M0 0 C0.99 0.66 1.98 1.32 3 2 C3 2.66 3 3.32 3 4 C0.03 3.67 -2.94 3.34 -6 3 C-6.33 4.32 -6.66 5.64 -7 7 C-6.28972656 7.34933594 -5.57945312 7.69867188 -4.84765625 8.05859375 C-3.92855469 8.51363281 -3.00945312 8.96867187 -2.0625 9.4375 C-1.14597656 9.88996094 -0.22945313 10.34242188 0.71484375 10.80859375 C3 12 3 12 4 13 C4.39152344 16.52371092 4.41041808 18.37616451 2.4375 21.375 C-0.91283535 23.6085569 -3.0481433 23.49398209 -7 23 C-9.4375 21.625 -9.4375 21.625 -11 20 C-11 19.34 -11 18.68 -11 18 C-10.319375 18.33 -9.63875 18.66 -8.9375 19 C-5.49159762 20.17307315 -2.61602578 20.14180493 1 20 C1.41780879 17.62694422 1.41780879 17.62694422 1 15 C-1.16341413 13.31673833 -1.16341413 13.31673833 -4 12 C-7.3125 10.125 -7.3125 10.125 -10 8 C-10.64510271 5.06119877 -10.45039572 3.76832212 -8.9375 1.1875 C-5.93702602 -0.65150018 -3.43518387 -0.30671285 0 0 Z " fill="#0E0E0E" transform="translate(363,334)"/>
<path d="M0 0 C0.66 0.33 1.32 0.66 2 1 C3.90850604 8.25232295 3.57562527 16.71273312 2 24 C0.35 24.33 -1.3 24.66 -3 25 C-2.89020915 21.39520054 -2.75955955 17.79145321 -2.625 14.1875 C-2.5940625 13.16333984 -2.563125 12.13917969 -2.53125 11.08398438 C-2.49257813 10.10107422 -2.45390625 9.11816406 -2.4140625 8.10546875 C-2.3826416 7.19949951 -2.3512207 6.29353027 -2.31884766 5.36010742 C-2 3 -2 3 0 0 Z " fill="#292924" transform="translate(336,277)"/>
<path d="M0 0 C3.96 0 7.92 0 12 0 C12 0.66 12 1.32 12 2 C9.03 2 6.06 2 3 2 C3 3.65 3 5.3 3 7 C5.31 7 7.62 7 10 7 C10 7.66 10 8.32 10 9 C7.69 9 5.38 9 3 9 C3 13.62 3 18.24 3 23 C2.01 23 1.02 23 0 23 C0 15.41 0 7.82 0 0 Z " fill="#202020" transform="translate(123,379)"/>
<path d="M0 0 C0.66 0 1.32 0 2 0 C2.84124316 2.24732102 3.67314832 4.49738785 4.5 6.75 C4.85771484 7.70132812 4.85771484 7.70132812 5.22265625 8.671875 C6.44801758 12.03286607 7 14.36871587 7 18 C7.66 18 8.32 18 9 18 C9.10957031 17.45472656 9.21914062 16.90945313 9.33203125 16.34765625 C10.51009937 10.74464935 12.087035 5.3945613 14 0 C14.66 0 15.32 0 16 0 C14.90140175 5.4014414 13.58710504 10.70185146 12.0625 16 C11.74410156 17.11375 11.42570313 18.2275 11.09765625 19.375 C10.73542969 20.24125 10.37320313 21.1075 10 22 C9.01 22.33 8.02 22.66 7 23 C5.82847622 19.54329268 4.66360923 16.08437878 3.5 12.625 C3.16613281 11.64015625 2.83226562 10.6553125 2.48828125 9.640625 C2.17246094 8.69960938 1.85664063 7.75859375 1.53125 6.7890625 C1.23798828 5.91975098 0.94472656 5.05043945 0.64257812 4.15478516 C0 2 0 2 0 0 Z " fill="#121212" transform="translate(226,379)"/>
<path d="M0 0 C0.99 0 1.98 0 3 0 C3 6.6 3 13.2 3 20 C5.97 20 8.94 20 12 20 C12 20.99 12 21.98 12 23 C8.04 23 4.08 23 0 23 C0 15.41 0 7.82 0 0 Z " fill="#323232" transform="translate(268,334)"/>
<path d="M0 0 C0.99 0.66 1.98 1.32 3 2 C3 2.66 3 3.32 3 4 C2.38511719 3.89300781 1.77023438 3.78601563 1.13671875 3.67578125 C-0.07564453 3.49595703 -0.07564453 3.49595703 -1.3125 3.3125 C-2.11300781 3.18488281 -2.91351563 3.05726563 -3.73828125 2.92578125 C-6.06924627 2.77944474 -6.06924627 2.77944474 -7.73046875 4.35546875 C-9.96752783 7.25332067 -10.1029787 8.85476619 -9.75 12.4375 C-9.64945313 13.61119141 -9.64945313 13.61119141 -9.546875 14.80859375 C-8.89450684 17.42272617 -8.18168806 18.43509758 -6 20 C-2.42556076 19.74468291 0.60365077 19.13211641 4 18 C3 21 3 21 0 23 C-3.86224368 23.32870159 -6.851017 23.38888365 -10 21 C-12.86829568 16.59511736 -13.55830058 13.21080542 -13 8 C-10.23813552 1.02958011 -7.43715225 -0.53122516 0 0 Z " fill="#0B0B0B" transform="translate(203,334)"/>
<path d="M0 0 C0 4 0 4 -1.5390625 5.8515625 C-5.52870438 9.24350522 -8.76287207 11.82164622 -14 13 C-12.63550416 7.79010681 -10.60150156 4.87161418 -7 1 C-4.53721199 -0.231394 -2.7204945 -0.07159196 0 0 Z " fill="#EDECEA" transform="translate(426,185)"/>
<path d="M0 0 C1 2 2 4 3 6 C2.2575 6.721875 1.515 7.44375 0.75 8.1875 C-1.69290515 10.68592573 -3.8681047 13.23643202 -6 16 C-6.66 15.34 -7.32 14.68 -8 14 C-9.32 14.99 -10.64 15.98 -12 17 C-10.40300825 10.07970243 -5.87707174 3.91804783 0 0 Z " fill="#1E1F19" transform="translate(418,180)"/>
<path d="M0 0 C0.99 0 1.98 0 3 0 C4.97997225 2.4986692 6.39954247 5.23164104 8 8 C9.98 5.36 11.96 2.72 14 0 C14.66 0.33 15.32 0.66 16 1 C15.57847656 1.58265625 15.15695313 2.1653125 14.72265625 2.765625 C10.22705488 9.49316023 9.02764748 14.9545829 9 23 C8.34 23 7.68 23 7 23 C6.99742187 22.17757813 6.99484375 21.35515625 6.9921875 20.5078125 C6.70189536 12.12804616 4.97869201 6.74483352 0 0 Z " fill="#030303" transform="translate(167,334)"/>
<path d="M0 0 C4.20626034 1.50223584 5.73900021 4.28550034 8 8 C8.33773438 7.4225 8.67546875 6.845 9.0234375 6.25 C9.46945312 5.5075 9.91546875 4.765 10.375 4 C10.81585938 3.2575 11.25671875 2.515 11.7109375 1.75 C12.34902344 0.88375 12.34902344 0.88375 13 0 C13.66 0 14.32 0 15 0 C14.01845356 2.64262502 13.04472428 4.93336994 11.46875 7.28125 C9.76150534 10.44146884 9.5085589 12.74422804 9.3125 16.3125 C9.21388672 17.91544922 9.21388672 17.91544922 9.11328125 19.55078125 C9.07589844 20.35902344 9.03851563 21.16726563 9 22 C8.34 22 7.68 22 7 22 C6.99742187 21.32195312 6.99484375 20.64390625 6.9921875 19.9453125 C6.66746824 12.13040235 4.31016368 7.40593134 0 1 C0 0.67 0 0.34 0 0 Z " fill="#0A0A0A" transform="translate(296,379)"/>
<path d="M0 0 C4.62 0 9.24 0 14 0 C14 0.66 14 1.32 14 2 C12.02 2 10.04 2 8 2 C8 8.93 8 15.86 8 23 C7.34 23 6.68 23 6 23 C6 16.07 6 9.14 6 2 C4.02 2 2.04 2 0 2 C0 1.34 0 0.68 0 0 Z " fill="#020202" transform="translate(374,334)"/>
<path d="M0 0 C-0.99 0.495 -0.99 0.495 -2 1 C-2.66 2.65 -3.32 4.3 -4 6 C-7.63 6.33 -11.26 6.66 -15 7 C-15.33 5.35 -15.66 3.7 -16 2 C-12.90470825 -1.09529175 -4.21967815 -0.08790996 0 0 Z " fill="#272621" transform="translate(403,201)"/>
<path d="M0 0 C0 0.66 0 1.32 0 2 C-0.56589844 2.12117188 -1.13179687 2.24234375 -1.71484375 2.3671875 C-2.81505859 2.61855469 -2.81505859 2.61855469 -3.9375 2.875 C-4.66839844 3.03742188 -5.39929688 3.19984375 -6.15234375 3.3671875 C-8.20700294 3.82961523 -8.20700294 3.82961523 -9 6 C-9.22950319 8.204364 -9.41075933 10.41392173 -9.5625 12.625 C-9.64628906 13.81351562 -9.73007813 15.00203125 -9.81640625 16.2265625 C-9.87699219 17.14179688 -9.93757812 18.05703125 -10 19 C-12.73312862 16.26687138 -12.69071425 14.07682373 -13.03515625 10.32421875 C-12.98375914 6.92629881 -11.89503487 4.77487249 -10 2 C-6.3558226 -0.4294516 -4.28758728 -0.16179575 0 0 Z " fill="#1A1A1A" transform="translate(253,334)"/>
<path d="M0 0 C3 2.25 3 2.25 5 5 C4.8125 7.3125 4.8125 7.3125 4 9 C3.649375 8.195625 3.29875 7.39125 2.9375 6.5625 C1.14892863 3.66317075 1.14892863 3.66317075 -2.5 3 C-5.83425667 2.71820488 -5.83425667 2.71820488 -7.8125 4 C-9.50421819 6.84920959 -10.21470318 9.79840528 -11 13 C-11.33 13 -11.66 13 -12 13 C-12.60356653 5.87791495 -12.60356653 5.87791495 -9.9375 2 C-6.22192774 -0.52975133 -4.4117517 -0.7878128 0 0 Z " fill="#111111" transform="translate(300,334)"/>
<path d="M0 0 C0.66 0.33 1.32 0.66 2 1 C2 2.32 2 3.64 2 5 C-3.445 7.475 -3.445 7.475 -9 10 C-9.33 9.01 -9.66 8.02 -10 7 C-9.01 7 -8.02 7 -7 7 C-8.32 6.34 -9.64 5.68 -11 5 C-9.21289414 4.13633178 -7.4201535 3.28431406 -5.625 2.4375 C-4.62726563 1.96183594 -3.62953125 1.48617187 -2.6015625 0.99609375 C-1.74304688 0.66738281 -0.88453125 0.33867187 0 0 Z " fill="#252520" transform="translate(441,232)"/>
<path d="M0 0 C0.25 2.25 0.25 2.25 0 5 C-2 7.3125 -2 7.3125 -4 9 C-3.690625 9.763125 -3.38125 10.52625 -3.0625 11.3125 C-2.32106407 13.18789677 -1.63771783 15.08684652 -1 17 C-3.99324263 15.9024777 -4.84610901 15.32317108 -6.25 12.375 C-6.4975 11.59125 -6.745 10.8075 -7 10 C-8.98 10 -10.96 10 -13 10 C-12.67 9.34 -12.34 8.68 -12 8 C-10.865625 7.731875 -9.73125 7.46375 -8.5625 7.1875 C-4.83009643 6.40530869 -4.83009643 6.40530869 -3.6875 3.4375 C-3.460625 2.633125 -3.23375 1.82875 -3 1 C-1 0 -1 0 0 0 Z " fill="#0B0B0B" transform="translate(187,384)"/>
<path d="M0 0 C1.32 0.66 2.64 1.32 4 2 C4.31785906 5.49644963 4.39644605 7.397402 2.4375 10.375 C-0.91283535 12.6085569 -3.0481433 12.49398209 -7 12 C-9.4375 10.625 -9.4375 10.625 -11 9 C-11 8.34 -11 7.68 -11 7 C-10.319375 7.33 -9.63875 7.66 -8.9375 8 C-5.49159762 9.17307315 -2.61602578 9.14180493 1 9 C1.20086443 5.28400809 1.1519437 4.22791555 -1 1 C-0.67 0.67 -0.34 0.34 0 0 Z " fill="#1F1F1F" transform="translate(363,345)"/>
<path d="M0 0 C0.99 0.66 1.98 1.32 3 2 C3 2.66 3 3.32 3 4 C2.38511719 3.89300781 1.77023437 3.78601563 1.13671875 3.67578125 C-0.07564453 3.49595703 -0.07564453 3.49595703 -1.3125 3.3125 C-2.11300781 3.18488281 -2.91351563 3.05726563 -3.73828125 2.92578125 C-6.03769508 2.79703195 -6.03769508 2.79703195 -7.71875 4.1875 C-9.24980465 6.35338218 -9.69783493 8.08850845 -10.1875 10.6875 C-10.42533203 11.89986328 -10.42533203 11.89986328 -10.66796875 13.13671875 C-10.77753906 13.75160156 -10.88710938 14.36648438 -11 15 C-13 13 -13 13 -13.375 10.25 C-12.91024367 6.22211178 -11.49246304 4.15223267 -9 1 C-5.98131566 -0.50934217 -3.32702771 -0.17510672 0 0 Z " fill="#121212" transform="translate(327,334)"/>
<path d="M0 0 C0.66 0 1.32 0 2 0 C2 7.59 2 15.18 2 23 C1.34 23 0.68 23 0 23 C0 18.05 0 13.1 0 8 C-1.32 7.67 -2.64 7.34 -4 7 C-2.68 7 -1.36 7 0 7 C0 4.69 0 2.38 0 0 Z " fill="#020202" transform="translate(229,334)"/>
<path d="M0 0 C0 3.20395416 -0.74335022 5.09399739 -2 8 C-2.66 8 -3.32 8 -4 8 C-4 9.65 -4 11.3 -4 13 C-4.99 13.495 -4.99 13.495 -6 14 C-6 13.34 -6 12.68 -6 12 C-7.32 12 -8.64 12 -10 12 C-8.52278578 8.54798361 -6.56205999 6.35038064 -3.875 3.75 C-3.15054688 3.04359375 -2.42609375 2.3371875 -1.6796875 1.609375 C-1.12539062 1.07828125 -0.57109375 0.5471875 0 0 Z " fill="#252420" transform="translate(155,201)"/>
<path d="M0 0 C0.99 0 1.98 0 3 0 C4.625 2.4375 4.625 2.4375 6 5 C6.33 5.33 6.66 5.66 7 6 C10.49734228 5.61140641 13.65788261 5.11403913 17 4 C16 7 16 7 13 9 C9.15525783 9.3272121 6.09050951 9.45109375 3 7 C1.76795655 4.71040852 0.90777494 2.45099234 0 0 Z " fill="#161616" transform="translate(190,348)"/>
<path d="M0 0 C1.9375 0.5625 1.9375 0.5625 4 2 C5.10980701 5.92131809 5.3885731 8.10628186 3.75 11.875 C2 14 2 14 -1 15 C-0.125 11.125 -0.125 11.125 1 10 C1.26293056 5.96839809 1.29404844 4.44107266 -1 1 C-0.67 0.67 -0.34 0.34 0 0 Z " fill="#313131" transform="translate(133,335)"/>
<path d="M0 0 C0.886875 0.12375 1.77375 0.2475 2.6875 0.375 C1.82125 0.7153125 1.82125 0.7153125 0.9375 1.0625 C-2.09988074 2.83430543 -3.50122454 4.33464477 -5.3125 7.375 C-5.63805094 10.40669311 -5.55060803 13.33912257 -5.3125 16.375 C-6.3025 16.375 -7.2925 16.375 -8.3125 16.375 C-9.17150532 6.71596235 -9.17150532 6.71596235 -6.1875 2.75 C-3.3125 0.375 -3.3125 0.375 0 0 Z " fill="#0D0D0D" transform="translate(327.3125,378.625)"/>
<path d="M0 0 C2.21003321 1.809168 3.39080714 3.58621071 5 6 C4.01 6.33 3.02 6.66 2 7 C1.62875 6.34 1.2575 5.68 0.875 5 C-0.8912495 2.68906548 -0.8912495 2.68906548 -4 2.625 C-7.17702205 2.7950271 -7.17702205 2.7950271 -10 5 C-10 3.68 -10 2.36 -10 1 C-6.76907619 -0.6154619 -3.47907992 -0.73838981 0 0 Z " fill="#1B1B1B" transform="translate(156,379)"/>
<path d="M0 0 C0.66 0.33 1.32 0.66 2 1 C1.34 1.66 0.68 2.32 0 3 C0.33 3.99 0.66 4.98 1 6 C1.66 6.33 2.32 6.66 3 7 C-0.465 8.485 -0.465 8.485 -4 10 C-4.66 7.69 -5.32 5.38 -6 3 C-4.03533587 1.93224776 -2.03144641 0.93446535 0 0 Z " fill="#23231D" transform="translate(176,187)"/>
<path d="M0 0 C0.33 0.66 0.66 1.32 1 2 C2.32 1.67 3.64 1.34 5 1 C4.38461538 6.53846154 4.38461538 6.53846154 2.4375 8.875 C1.7259375 9.431875 1.7259375 9.431875 1 10 C0.67 9.01 0.34 8.02 0 7 C-0.66 6.34 -1.32 5.68 -2 5 C-1.34 3.35 -0.68 1.7 0 0 Z " fill="#201F19" transform="translate(332,300)"/>
<path d="M0 0 C1.65 0.33 3.3 0.66 5 1 C3.52307692 5.67692308 3.52307692 5.67692308 0.875 7.3125 C-0.053125 7.6528125 -0.053125 7.6528125 -1 8 C-1.66 6.68 -2.32 5.36 -3 4 C-2.01 2.68 -1.02 1.36 0 0 Z " fill="#171710" transform="translate(162,196)"/>
<path d="M0 0 C0.66 0 1.32 0 2 0 C2.58267717 9.90551181 2.58267717 9.90551181 -1 14 C-3.1875 14.8125 -3.1875 14.8125 -5 15 C-5 14.34 -5 13.68 -5 13 C-4.29423828 12.35611328 -4.29423828 12.35611328 -3.57421875 11.69921875 C-1.52693441 9.48937088 -1.30980476 7.75807434 -0.8125 4.8125 C-0.65394531 3.91144531 -0.49539062 3.01039063 -0.33203125 2.08203125 C-0.22246094 1.39496094 -0.11289063 0.70789063 0 0 Z " fill="#0B0B0B" transform="translate(159,386)"/>
<path d="M0 0 C1.32 0.33 2.64 0.66 4 1 C3.8125 3.875 3.8125 3.875 3 7 C0.4375 8.375 0.4375 8.375 -2 9 C-1.125 2.25 -1.125 2.25 0 0 Z " fill="#181A12" transform="translate(103,285)"/>
<path d="M0 0 C1.20628008 2.33214148 2.1654738 4.49642139 3 7 C1.0625 9.6875 1.0625 9.6875 -1 12 C-1 10.68 -1 9.36 -1 8 C-1.99 8.33 -2.98 8.66 -4 9 C-2.80100302 5.9168649 -1.52299523 2.93720508 0 0 Z " fill="#23221D" transform="translate(128,234)"/>
<path d="M0 0 C0.33 0.99 0.66 1.98 1 3 C0.67 3.66 0.34 4.32 0 5 C-2.32156597 5.40729228 -4.6568787 5.74438677 -7 6 C-6.625 3.5625 -6.625 3.5625 -6 1 C-4 0 -4 0 0 0 Z " fill="#171712" transform="translate(351,211)"/>
<path d="M0 0 C3.63 0 7.26 0 11 0 C11 0.66 11 1.32 11 2 C8.03 2 5.06 2 2 2 C2 3.65 2 5.3 2 7 C1.34 7 0.68 7 0 7 C0 4.69 0 2.38 0 0 Z " fill="#181818" transform="translate(124,379)"/>
<path d="M0 0 C-0.33 2.31 -0.66 4.62 -1 7 C-1.99 7.33 -2.98 7.66 -4 8 C-4.66 8.66 -5.32 9.32 -6 10 C-5.38909774 3.52443609 -5.38909774 3.52443609 -3.5625 1.0625 C-2 0 -2 0 0 0 Z " fill="#181811" transform="translate(92,328)"/>
<path d="M0 0 C2.64 0 5.28 0 8 0 C8 3.96 8 7.92 8 12 C7.67 12 7.34 12 7 12 C6.67 8.7 6.34 5.4 6 2 C4.02 2 2.04 2 0 2 C0 1.34 0 0.68 0 0 Z " fill="#0A0A0A" transform="translate(323,345)"/>
<path d="M0 0 C1.485 0.99 1.485 0.99 3 2 C3.28599501 4.00196506 3.56690348 6.00888981 3.69140625 8.02734375 C3.90828639 10.31681928 3.90828639 10.31681928 6 13 C4.125 12.8125 4.125 12.8125 2 12 C-0.30238787 8.08594062 -0.17461992 4.45280788 0 0 Z " fill="#303030" transform="translate(287,341)"/>
<path d="M0 0 C0.33 0.66 0.66 1.32 1 2 C0.01 2 -0.98 2 -2 2 C-2 2.99 -2 3.98 -2 5 C-4.70879335 6.35439668 -7.00933268 6.06501451 -10 6 C-6.98112756 2.51668565 -4.43090471 1.20842856 0 0 Z " fill="#161611" transform="translate(433,237)"/>
<path d="M0 0 C0.66 0.66 1.32 1.32 2 2 C1.01 4.31 0.02 6.62 -1 9 C-1.66 9 -2.32 9 -3 9 C-3.33 7.35 -3.66 5.7 -4 4 C-3.01 4 -2.02 4 -1 4 C-0.67 2.68 -0.34 1.36 0 0 Z " fill="#1B1B1B" transform="translate(236,393)"/>
<path d="M0 0 C3.875 0.875 3.875 0.875 5 2 C7.32817964 2.36760731 9.6618385 2.70241581 12 3 C11.67 3.66 11.34 4.32 11 5 C6.37390802 5.3227506 3.71973879 4.84450614 0 2 C0 1.34 0 0.68 0 0 Z " fill="#1B1B1B" transform="translate(145,352)"/>
<path d="M0 0 C0.66 0.33 1.32 0.66 2 1 C1.67 2.98 1.34 4.96 1 7 C0.34 7 -0.32 7 -1 7 C-1.33 7.99 -1.66 8.98 -2 10 C-2.33 10 -2.66 10 -3 10 C-2.25 3.375 -2.25 3.375 0 0 Z " fill="#E5E5E3" transform="translate(410,207)"/>
<path d="M0 0 C-0.25561323 2.3431213 -0.59270772 4.67843403 -1 7 C-1.99 7.495 -1.99 7.495 -3 8 C-3 7.34 -3 6.68 -3 6 C-4.45833358 4.37485532 -4.45833358 4.37485532 -6 3 C-4.46624489 -0.06751022 -3.38927784 0 0 0 Z " fill="#181810" transform="translate(383,121)"/>
<path d="M0 0 C0.680625 0.309375 1.36125 0.61875 2.0625 0.9375 C5.36965912 2.13370649 8.51545878 2.59005397 12 3 C11.67 3.66 11.34 4.32 11 5 C4.64948454 5.36637589 4.64948454 5.36637589 1.5625 3.625 C0 2 0 2 0 0 Z " fill="#151515" transform="translate(352,352)"/>
<path d="M0 0 C0.99 0.66 1.98 1.32 3 2 C3.1875 5.125 3.1875 5.125 3 8 C1.68 7.67 0.36 7.34 -1 7 C-1.33 5.02 -1.66 3.04 -2 1 C-1.34 0.67 -0.68 0.34 0 0 Z " fill="#161710" transform="translate(152,274)"/>
<path d="M0 0 C0.33 1.65 0.66 3.3 1 5 C-1.31 5.33 -3.62 5.66 -6 6 C-5.01 5.01 -4.02 4.02 -3 3 C-3.66 3 -4.32 3 -5 3 C-5 2.34 -5 1.68 -5 1 C-2 0 -2 0 0 0 Z " fill="#25241F" transform="translate(326,218)"/>
<path d="M0 0 C0.33 0 0.66 0 1 0 C1.3125 2.1875 1.3125 2.1875 1 5 C-1.5 7.8125 -1.5 7.8125 -4 10 C-4.33 9.01 -4.66 8.02 -5 7 C-4.34 6.34 -3.68 5.68 -3 5 C-2.31731862 3.67479497 -1.6492959 2.34187818 -1 1 C-0.67 0.67 -0.34 0.34 0 0 Z " fill="#2E2E2E" transform="translate(186,384)"/>
<path d="M0 0 C2.92823559 1.77235312 3.44045424 3.20906918 4.375 6.4375 C3.385 6.4375 2.395 6.4375 1.375 6.4375 C0.92125 5.798125 0.4675 5.15875 0 4.5 C-1.4912773 2.18985447 -1.4912773 2.18985447 -4.3125 1.6875 C-5.4571875 1.56375 -5.4571875 1.56375 -6.625 1.4375 C-4.0742598 -0.26299347 -3.05397233 -0.65442264 0 0 Z " fill="#202020" transform="translate(332.625,379.5625)"/>
<path d="M0 0 C2.0625 1.875 2.0625 1.875 2.375 4.5625 C2.2203125 5.7071875 2.2203125 5.7071875 2.0625 6.875 C1.32 5.6684375 1.32 5.6684375 0.5625 4.4375 C-2.89445939 0.89411662 -5.08538209 1.1176059 -9.9375 0.875 C-9.9375 0.545 -9.9375 0.215 -9.9375 -0.125 C-6.11831355 -0.9487461 -3.69522042 -1.4151908 0 0 Z " fill="#161616" transform="translate(183.9375,380.125)"/>
<path d="M0 0 C0.66 0 1.32 0 2 0 C0.6302836 3.99500618 -1.25722422 6.80009492 -4 10 C-4.33 9.34 -4.66 8.68 -5 8 C-4.07421875 6.0546875 -4.07421875 6.0546875 -2.6875 3.875 C-2.23761719 3.15054687 -1.78773438 2.42609375 -1.32421875 1.6796875 C-0.88722656 1.12539063 -0.45023437 0.57109375 0 0 Z " fill="#151515" transform="translate(309,379)"/>
<path d="M0 0 C0.556875 0.639375 1.11375 1.27875 1.6875 1.9375 C4.22066561 4.19680987 5.68341424 4.63149047 9 5 C9 5.66 9 6.32 9 7 C2.25 6.25 2.25 6.25 0 4 C0 2.68 0 1.36 0 0 Z " fill="#0D0D0D" transform="translate(243,350)"/>
<path d="M0 0 C0.99 0 1.98 0 3 0 C4.65 2.97 6.3 5.94 8 9 C7.01 9 6.02 9 5 9 C3.35 6.03 1.7 3.06 0 0 Z " fill="#191919" transform="translate(167,334)"/>
<path d="M0 0 C1.32 0 2.64 0 4 0 C3.125 4.75 3.125 4.75 2 7 C1.34 6.67 0.68 6.34 0 6 C-0.6875 3.5 -0.6875 3.5 -1 1 C-0.67 0.67 -0.34 0.34 0 0 Z " fill="#16160F" transform="translate(119,251)"/>
<path d="M0 0 C1.65 0 3.3 0 5 0 C4.67 1.32 4.34 2.64 4 4 C2.35 4 0.7 4 -1 4 C-0.67 2.68 -0.34 1.36 0 0 Z " fill="#161611" transform="translate(144,213)"/>
<path d="M0 0 C0.66 0.33 1.32 0.66 2 1 C1.34 2.65 0.68 4.3 0 6 C-4.875 4.25 -4.875 4.25 -6 2 C-4.7934375 1.7834375 -4.7934375 1.7834375 -3.5625 1.5625 C-1.07896294 1.25864751 -1.07896294 1.25864751 0 0 Z " fill="#181912" transform="translate(378,85)"/>
<path d="M0 0 C1.0625 1.875 1.0625 1.875 2 4 C1.67 4.66 1.34 5.32 1 6 C0.34 5.34 -0.32 4.68 -1 4 C-2.32 4.99 -3.64 5.98 -5 7 C-4.1875 4.0625 -4.1875 4.0625 -3 1 C-2.01 0.67 -1.02 0.34 0 0 Z " fill="#262621" transform="translate(411,190)"/>
<path d="M0 0 C1.231394 3.69418201 0.64432764 6.2056261 0 10 C-0.66 10 -1.32 10 -2 10 C-2.1953125 3.9453125 -2.1953125 3.9453125 -2 2 C-1.34 1.34 -0.68 0.68 0 0 Z " fill="#0D0D0D" transform="translate(145,383)"/>
<path d="M0 0 C0.33 0 0.66 0 1 0 C0.75 3.375 0.75 3.375 0 7 C-2.0625 8.4375 -2.0625 8.4375 -4 9 C-3.35499066 5.51694958 -1.95865224 2.93797836 0 0 Z " fill="#1C1C1C" transform="translate(136,341)"/>
<path d="M0 0 C1.875 0.625 1.875 0.625 4 2 C5.25 5.125 5.25 5.125 6 8 C3 7 3 7 1.9375 5.0625 C1.628125 4.381875 1.31875 3.70125 1 3 C0.34 2.34 -0.32 1.68 -1 1 C-0.67 0.67 -0.34 0.34 0 0 Z " fill="#1B1B1B" transform="translate(253,335)"/>
<path d="M0 0 C0.66 0.33 1.32 0.66 2 1 C1.21718695 2.33855056 0.42348123 3.67073644 -0.375 5 C-0.81585938 5.7425 -1.25671875 6.485 -1.7109375 7.25 C-2.34902344 8.11625 -2.34902344 8.11625 -3 9 C-3.66 9 -4.32 9 -5 9 C-3.7508258 5.54074837 -2.32472205 2.85306797 0 0 Z " fill="#101010" transform="translate(181,334)"/>
<path d="M0 0 C0.99 0.33 1.98 0.66 3 1 C2.67 2.65 2.34 4.3 2 6 C1.01 5.67 0.02 5.34 -1 5 C-0.67 3.35 -0.34 1.7 0 0 Z " fill="#161711" transform="translate(139,219)"/>
<path d="M0 0 C1.98 0 3.96 0 6 0 C3.63707344 2.52588702 2.33537489 3.88820837 -1 5 C-0.67 3.35 -0.34 1.7 0 0 Z " fill="#EAEBE7" transform="translate(305,195)"/>
<path d="M0 0 C4.52346473 2.26173236 5.05828666 3.53405933 7 8 C6.01 8 5.02 8 4 8 C2.68 5.36 1.36 2.72 0 0 Z " fill="#171717" transform="translate(296,379)"/>
<path d="M0 0 C1.9375 0.625 1.9375 0.625 4 2 C4.75 5.125 4.75 5.125 5 8 C4.01 7.67 3.02 7.34 2 7 C0.8125 3.4375 0.8125 3.4375 0 0 Z " fill="#222222" transform="translate(284,380)"/>
<path d="M0 0 C2.31 0.33 4.62 0.66 7 1 C7.33 1.99 7.66 2.98 8 4 C3.545 3.01 3.545 3.01 -1 2 C-0.67 1.34 -0.34 0.68 0 0 Z " fill="#060606" transform="translate(151,334)"/>
<path d="M0 0 C1.98 0 3.96 0 6 0 C5.34 1.32 4.68 2.64 4 4 C2.68 3.67 1.36 3.34 0 3 C0 2.01 0 1.02 0 0 Z " fill="#16160D" transform="translate(366,81)"/>
</svg>
